<?xml version="1.0" encoding="UTF-8"?>
<svg id="Layer_1" xmlns="http://www.w3.org/2000/svg" version="1.1" xmlns:xlink="http://www.w3.org/1999/xlink" viewBox="0 0 375 375">
  <!-- Generator: Adobe Illustrator 30.1.0, SVG Export Plug-In . SVG Version: 2.1.1 Build 136)  -->
  <defs>
    <style>
      .st0 {
        fill: #fdf5e6;
      }

      .st1 {
        fill: #333;
        opacity: 0;
      }

      .st2 {
        stroke-width: 10px;
      }

      .st2, .st3, .st4, .st5 {
        fill: none;
      }

      .st2, .st4 {
        stroke: #2d463e;
        stroke-miterlimit: 10;
      }

      .st6 {
        fill: #fff;
      }

      .st6, .st7 {
        display: none;
      }

      .st8 {
        clip-path: url(#clippath-1);
      }

      .st4 {
        stroke-width: 20px;
      }

      .st5 {
        clip-rule: evenodd;
      }

      .st9 {
        fill: #2d463e;
      }

      .st10 {
        clip-path: url(#clippath);
      }
    </style>
    <clipPath id="clippath">
      <path class="st5" d="M33.31,33.09C63.85,2.94,111.91.95,153.21.18c42.71.16,91.12-2.43,131.58,5.5,83.7,15.17,90.97,89.72,90.19,162.41-.2,35.16,1.2,71.35-3.61,106.1-7.01,56.94-40.2,90.19-97.19,97.18-34.75,4.8-70.93,3.41-106.09,3.61-72.63.77-147.26-6.47-162.4-90.2C-2.26,244.25.35,195.79.18,153,.95,111.73,3,63.66,33.2,33.2l.11-.11Z"/>
    </clipPath>
    <clipPath id="clippath-1">
      <rect class="st3" x="39.28" y="35.01" width="296.25" height="288.75"/>
    </clipPath>
  </defs>
  <g class="st7">
    <rect class="st6" y="0" width="375" height="366.96"/>
  </g>
  <g class="st10">
    <path class="st0" d="M33.31,33.09C63.85,2.94,111.91.95,153.21.18c42.71.16,91.14-2.43,131.58,5.5,83.52,15.13,90.96,89.42,90.18,162.01-.2,35.29,1.22,71.62-3.6,106.5-7.01,56.94-40.2,90.19-97.19,97.18-34.88,4.82-71.2,3.4-106.5,3.61-72.53.77-146.9-6.64-162-90.19C-2.25,244.27.35,195.79.18,153,.95,111.73,3,63.66,33.2,33.2l.11-.11Z"/>
  </g>
  <g class="st7">
    <g class="st8">
      <path class="st9" d="M193.09,58.62c-1.55-.08-2.42.83-2.42,2.33,0,1.41.86,2.23,2.28,2.22,1.4,0,2.2-.78,2.35-2.2-.11-1.38-.8-2.28-2.21-2.35ZM157.34,210.24c-1.57.01-2.36,1-2.28,2.49.07,1.42,1.01,2.2,2.41,2.11,1.39-.08,2.15-.94,2.22-2.41-.2-1.32-.92-2.21-2.35-2.19ZM191.29,72.12c-.39,1.34-.3,2.7-.19,4.06.65,8,2.14,15.85,4.18,23.61,4.33,16.47,13.48,29.36,28.01,38.4,4.49,2.79,9.06,5.4,13.79,7.76,13.66,6.8,27.86,12.69,39.47,23.02,1.16,1.03,2.62,1.48,3.84.08,1.3-1.5.58-2.89-.69-3.96-3.99-3.34-8.07-6.57-12.52-9.31-9.5-5.83-19.75-10.2-29.64-15.26-9.24-4.73-18.05-10.08-25.05-17.92-8.24-9.22-11.79-20.55-14.27-32.32-1.17-5.57-2.06-11.18-2.15-16.89-.03-1.63-.54-3.04-2.63-3.15-1.07.15-1.8.75-2.14,1.89ZM46.62,259.12c3.96,7,9.6,12.36,16.07,16.95,1.28.91,2.75,1.28,3.89-.09,1.25-1.51.48-2.84-.85-3.91-.87-.71-1.75-1.41-2.65-2.07-12.16-8.99-17.91-21.4-18.3-36.17-.6-22.49,7.42-42.01,22.06-58.83,10.69-12.28,24.49-20.2,39.17-26.73,9.57-4.26,19.59-7.47,28.98-12.13,7.53-3.74,15.06-7.5,21.27-13.35,1.28-1.21,2.16-2.6.69-4.14-1.35-1.43-2.79-.76-4.02.37-2.25,2.07-4.65,3.91-7.25,5.53-8.87,5.52-18.33,9.79-28.07,13.51-14.01,5.35-27.71,11.36-39.85,20.35-24.3,17.99-36.55,42.38-38.22,72.29-.01,10.13,2.08,19.61,7.07,28.42ZM304.82,271.86c11.07-7.64,18.35-17.48,21.78-29.85,7.28-26.24,1.92-50.03-14.53-71.53-8.82-11.53-20.93-18.4-33.82-24.22-10.86-4.9-22.27-8.54-32.91-13.96-7.29-3.72-14.31-7.82-20.55-13.22-11.04-9.56-16.38-22.03-19-36.02-2.08-11.09-2.42-22.3-2.82-33.51-.08-2.16-.14-4.32-.41-6.47-.23-1.88-.99-2.39-2.67-1.66-1.1.48-2.22.94-3.25,1.54-7.14,4.12-13.31,9.44-18.94,15.43-1.64,1.74-2.32,3.68-2.17,6.1.58,9.61,1,19.22.65,28.85-.82,22.44-9.78,40.78-27.28,54.98-6.73,5.46-13.63,10.68-20.56,15.86-27.21,20.34-43.63,47.47-50.71,80.47-2.3,10.72-2.28,21.48-.14,32.23,2.93,14.74,12.05,23.21,26.58,26.14,11.01,2.22,21.67.92,32.01-3.38,1.06-.44,1.23-.81.76-1.9-3.85-8.99-3.77-18.46-2.95-27.91,1.49-17.15,7.76-32.76,15.94-47.71.83-1.51,1.86-2.91,3.75-1.99,2.02.98,1.57,2.77.72,4.36-5.22,9.76-9.88,19.73-12.65,30.51-2.68,10.42-3.83,20.91-2.66,31.67,1.04,9.53,6.07,16.19,14.19,20.7,8.37,4.65,17.52,7.06,26.9,8.44,13.06,1.93,25.93.75,38.32-3.91,14.14-5.32,21.18-15.98,22.07-30.82,1.33-22.31-3.39-43.43-12.72-63.64-6.48-14.03-14.29-27.38-21.16-41.21-4.15-8.35-7.05-17.16-9.74-26.04-.21-.68-.29-1.42-.29-2.13,0-1.25.54-2.18,1.87-2.42,1.28-.23,2.23.29,2.7,1.47.47,1.19.86,2.41,1.19,3.64,4.02,15.16,11.51,28.77,18.83,42.46,7.13,13.34,14.32,26.68,18.6,41.28,4.05,13.83,6.45,27.95,6.04,42.41-.26,9.06-1.64,17.9-6.98,25.59-6.28,9.06-15.37,13.88-25.74,16.45-20.07,4.99-39.58,2.99-58.5-5.21-4.81-2.09-9.16-5.36-12.86-9.08-.19-.19-.95-.96-1.99-.99-.8-.03-1.4.38-1.58.5-2.28,1.46-11.82,3.88-17.44,4.62-4.58.6-8.1.28-10.17.12-10.9-.82-20.95-3.85-28.75-12.09-5.79-6.12-8.4-13.69-9.74-21.82-3.41-20.77,1.34-40.29,9.37-59.22,10.01-23.6,25.72-42.65,46.49-57.64,8.32-6,16.43-12.26,23.9-19.36,11.43-10.87,17.1-24.38,18.89-39.72,1.36-11.6.48-23.23-.21-34.84-.2-3.32.67-5.99,2.78-8.36,6.33-7.12,13.51-13.22,21.89-17.83,1.18-.65,2.47-1.17,3.76-1.56,4.77-1.44,7.7.32,8.48,5.22.84,5.32.71,10.71.91,16.07.37,10.11,1.42,20.11,3.7,30,3.66,15.85,13.07,27.15,26.84,35.25,10.11,5.95,20.96,10.24,31.82,14.59,13.1,5.24,26.13,10.8,36.68,20.54,13.97,12.9,22.83,28.72,26.11,47.54,2.03,11.68,1.9,23.28-1.06,34.81-3.91,15.25-12.44,27.27-25.36,36.15-2.63,1.8-4.19,4.01-5.32,7-5.69,15.18-18.75,24.13-34.93,24.37-5.66.08-11.18-.71-16.64-2.1-.54-.14-1.08-.29-1.61-.48-1.55-.55-2.88-1.37-2.34-3.3.54-1.94,2.07-1.95,3.69-1.53,3.49.9,6.98,1.7,10.58,2.15,19.72,2.42,34.98-8.65,38.74-28.22,2.5-13.04.61-25.7-3.58-38.09-7.52-22.24-20.52-40.79-38.22-56.11-2.48-2.15-3.1-3.66-1.74-4.9,2.05-1.87,3.52-.17,4.95,1.07,20.75,18.02,35.33,39.96,42.21,66.75,2.37,9.24,3.03,18.64,2.03,28.61Z"/>
      <path class="st9" d="M193.09,58.62c-1.55-.08-2.42.83-2.42,2.33,0,1.41.86,2.23,2.28,2.22,1.4,0,2.2-.78,2.35-2.2-.11-1.38-.8-2.28-2.21-2.35ZM157.34,210.24c-1.57.01-2.36,1-2.28,2.49.07,1.42,1.01,2.2,2.41,2.11,1.39-.08,2.15-.94,2.22-2.41-.2-1.32-.92-2.21-2.35-2.19ZM191.29,72.12c-.39,1.34-.3,2.7-.19,4.06.65,8,2.14,15.85,4.18,23.61,4.33,16.47,13.48,29.36,28.01,38.4,4.49,2.79,9.06,5.4,13.79,7.76,13.66,6.8,27.86,12.69,39.47,23.02,1.16,1.03,2.62,1.48,3.84.08,1.3-1.5.58-2.89-.69-3.96-3.99-3.34-8.07-6.57-12.52-9.31-9.5-5.83-19.75-10.2-29.64-15.26-9.24-4.73-18.05-10.08-25.05-17.92-8.24-9.22-11.79-20.55-14.27-32.32-1.17-5.57-2.06-11.18-2.15-16.89-.03-1.63-.54-3.04-2.63-3.15-1.07.15-1.8.75-2.14,1.89ZM46.62,259.12c3.96,7,9.6,12.36,16.07,16.95,1.28.91,2.75,1.28,3.89-.09,1.25-1.51.48-2.84-.85-3.91-.87-.71-1.75-1.41-2.65-2.07-12.16-8.99-17.91-21.4-18.3-36.17-.6-22.49,7.42-42.01,22.06-58.83,10.69-12.28,24.49-20.2,39.17-26.73,9.57-4.26,19.59-7.47,28.98-12.13,7.53-3.74,15.06-7.5,21.27-13.35,1.28-1.21,2.16-2.6.69-4.14-1.35-1.43-2.79-.76-4.02.37-2.25,2.07-4.65,3.91-7.25,5.53-8.87,5.52-18.33,9.79-28.07,13.51-14.01,5.35-27.71,11.36-39.85,20.35-24.3,17.99-36.55,42.38-38.22,72.29-.01,10.13,2.08,19.61,7.07,28.42ZM304.82,271.86c11.07-7.64,18.35-17.48,21.78-29.85,7.28-26.24,1.92-50.03-14.53-71.53-8.82-11.53-20.93-18.4-33.82-24.22-10.86-4.9-22.27-8.54-32.91-13.96-7.29-3.72-14.31-7.82-20.55-13.22-11.04-9.56-16.38-22.03-19-36.02-2.08-11.09-2.42-22.3-2.82-33.51-.08-2.16-.14-4.32-.41-6.47-.23-1.88-.99-2.39-2.67-1.66-1.1.48-2.22.94-3.25,1.54-7.14,4.12-13.31,9.44-18.94,15.43-1.64,1.74-2.32,3.68-2.17,6.1.58,9.61,1,19.22.65,28.85-.82,22.44-9.78,40.78-27.28,54.98-6.73,5.46-13.63,10.68-20.56,15.86-27.21,20.34-43.63,47.47-50.71,80.47-2.3,10.72-2.28,21.48-.14,32.23,2.93,14.74,12.05,23.21,26.58,26.14,11.01,2.22,21.67.92,32.01-3.38,1.06-.44,1.23-.81.76-1.9-3.85-8.99-3.77-18.46-2.95-27.91,1.49-17.15,7.76-32.76,15.94-47.71.83-1.51,1.86-2.91,3.75-1.99,2.02.98,1.57,2.77.72,4.36-5.22,9.76-9.88,19.73-12.65,30.51-2.68,10.42-3.83,20.91-2.66,31.67,1.04,9.53,6.07,16.19,14.19,20.7,8.37,4.65,17.52,7.06,26.9,8.44,13.06,1.93,25.93.75,38.32-3.91,14.14-5.32,21.18-15.98,22.07-30.82,1.33-22.31-3.39-43.43-12.72-63.64-6.48-14.03-14.29-27.38-21.16-41.21-4.15-8.35-7.05-17.16-9.74-26.04-.21-.68-.29-1.42-.29-2.13,0-1.25.54-2.18,1.87-2.42,1.28-.23,2.23.29,2.7,1.47.47,1.19.86,2.41,1.19,3.64,4.02,15.16,11.51,28.77,18.83,42.46,7.13,13.34,14.32,26.68,18.6,41.28,4.05,13.83,6.45,27.95,6.04,42.41-.26,9.06-1.64,17.9-6.98,25.59-6.28,9.06-15.37,13.88-25.74,16.45-20.07,4.99-39.58,2.99-58.5-5.21-4.81-2.09-9.16-5.36-12.86-9.08-.19-.19-.95-.96-1.99-.99-.8-.03-1.4.38-1.58.5-2.28,1.46-11.82,3.88-17.44,4.62-4.58.6-8.1.28-10.17.12-10.9-.82-20.95-3.85-28.75-12.09-5.79-6.12-8.4-13.69-9.74-21.82-3.41-20.77,1.34-40.29,9.37-59.22,10.01-23.6,25.72-42.65,46.49-57.64,8.32-6,16.43-12.26,23.9-19.36,11.43-10.87,17.1-24.38,18.89-39.72,1.36-11.6.48-23.23-.21-34.84-.2-3.32.67-5.99,2.78-8.36,6.33-7.12,13.51-13.22,21.89-17.83,1.18-.65,2.47-1.17,3.76-1.56,4.77-1.44,7.7.32,8.48,5.22.84,5.32.71,10.71.91,16.07.37,10.11,1.42,20.11,3.7,30,3.66,15.85,13.07,27.15,26.84,35.25,10.11,5.95,20.96,10.24,31.82,14.59,13.1,5.24,26.13,10.8,36.68,20.54,13.97,12.9,22.83,28.72,26.11,47.54,2.03,11.68,1.9,23.28-1.06,34.81-3.91,15.25-12.44,27.27-25.36,36.15-2.63,1.8-4.19,4.01-5.32,7-5.69,15.18-18.75,24.13-34.93,24.37-5.66.08-11.18-.71-16.64-2.1-.54-.14-1.08-.29-1.61-.48-1.55-.55-2.88-1.37-2.34-3.3.54-1.94,2.07-1.95,3.69-1.53,3.49.9,6.98,1.7,10.58,2.15,19.72,2.42,34.98-8.65,38.74-28.22,2.5-13.04.61-25.7-3.58-38.09-7.52-22.24-20.52-40.79-38.22-56.11-2.48-2.15-3.1-3.66-1.74-4.9,2.05-1.87,3.52-.17,4.95,1.07,20.75,18.02,35.33,39.96,42.21,66.75,2.37,9.24,3.03,18.64,2.03,28.61Z"/>
    </g>
  </g>
  <rect class="st1" x="44.44" y="47.33" width="296.45" height="288.9"/>
  <path class="st4" d="M255.78,177.04c8.68,6.34,17.44,12.87,24.01,21.48,12.14,16.46,17.66,38.21,21.37,58.35.63,3.91.98,7.92,1.36,11.83.38,3.13.85,9.65,4.76,7.27,2.43-1.38,6-5.99,9.34-9.98,4.32-5.28,8.77-10.63,11.52-16.93,2.84-6.35,3.49-13.52,3.3-20.73-.49-17.67-3.19-36.04-13.29-50.92-14.18-21.33-38.32-32.76-60.62-43.3-10.22-4.94-21.02-9.37-29.5-17.12-30.41-27.67-13.76-75.24-28.48-74.87-3.61.18-8.75,4-13.58,7.33-4.7,3.23-9.1,6.83-13.27,10.72"/>
  <path class="st4" d="M175.1,58.68c-6.56,43.85.09,68.78-39.23,99.18-6.19,4.87-12.78,9.26-18.92,14.19-12.13,9.54-21.37,22.06-28.5,35.64-9.8,18.49-17.69,39.69-15.14,60.93,1.85,15.74,12.89,29.96,28.27,34.44,11.37,3.63,24.83,1.46,36.82-.9"/>
  <path class="st4" d="M148.98,228.62c-7.58,15.79-14.26,32.45-15.5,49.78-.93,12.99.42,31.43,14.37,38.82,7.66,4.06,17.44,4.5,26.04,5.49,9.63,1.11,19.06,2.08,28.77,1.41,15.97-1.1,35.8-4.01,44.58-17.71,10.57-16.5.95-34.03-2.1-51.12"/>
  <path class="st4" d="M249.64,303.03c14.16.24,31.26-.04,41.6-10.67,5.4-5.65,8.72-12.88,12.25-19.8"/>
  <path class="st4" d="M133.26,124.83c-22.58,16.54-48.71,25.93-70,44.96-6.53,5.74-12.41,12.57-16.52,20.83-8.26,16.8-12.66,47.11-6.59,65,4.25,12.41,14.15,20.12,23.89,26.39"/>
  <path class="st4" d="M202.54,130.62c6.89,16.78,7.48,21.92,29.11,29.03,5.75,2.12,9.87,5.33,14.02,9.28"/>
  <path class="st4" d="M208.46,174.58c.65,6.48,2.42,12.8,5.38,18.63,3.19,6.64,6.62,13.15,10.49,19.38,4.12,6.62,8.69,12.95,11.99,20.06,3.73,7.95,6.4,16.35,9.34,24.61"/>
  <path class="st4" d="M56.69,276.49c10.77,8.08,21.92,15.42,33.23,20.74"/>
  <path class="st2" d="M170.84,53.85c-2.03,7.98-3,15.63-2.71,24.62"/>
</svg>